# xmcd
#
# Track frame offsets:
#	150
#	10844
#	32603
#	48758
#	64464
#	100750
#	122409
#	146063
#	168363
#	183438
#	207675
#
# Disc length: 3116 seconds
#
# Revision: 1
# Processed by: cddbd v1.5.2PL0 Copyright (c) Steve Scherf et al.
# Submitted via: audiograbber 1.83.01
#
DISCID=960c2a0b
DTITLE=Green Mountain Grass - Both Sides of the Mountain
DYEAR=2007
DGENRE=Bluegrass
TTITLE0=Lower Turtle Washout
TTITLE1=Going Nowhere
TTITLE2=Long, Long Road
TTITLE3=Orion's Sky
TTITLE4=All the Things We Say
TTITLE5=House of the Rising Sun
TTITLE6=Fool's Last Song
TTITLE7=Red Haired Boy - Fool's Last Song
TTITLE8=Csardas
TTITLE9=Sow the World
TTITLE10=Shady Grove
EXTD=
EXTT0=
EXTT1=
EXTT2=
EXTT3=
EXTT4=Recorded Live at Threadgills 8-5-2006
EXTT5=Recorded Live at Threadgills 8-5-2006
EXTT6=Recorded Live at Threadgills 8-5-2006
EXTT7=Recorded Live at Threadgills 8-5-2006
EXTT8=Recorded Live at Threadgills 8-5-2006
EXTT9=Recorded Live at Threadgills 8-5-2006
EXTT10=Recorded Live at Threadgills 8-5-2006
PLAYORDER=
